<svg xmlns="http://www.w3.org/2000/svg" viewBox="0 0 32 32">
  <defs>
    <linearGradient id="g" x1="0" y1="0" x2="1" y2="1">
      <stop offset="0%" stop-color="#e2e8f0"/>
      <stop offset="100%" stop-color="#94a3b8"/>
    </linearGradient>
  </defs>
  <!-- cranium -->
  <path fill="url(#g)" d="M16 2c-6.6 0-12 4.7-12 11.2 0 3.1 1.3 5.6 3.3 7.4.4.4.7 1 .7 1.6v1.3c0 1.3 1 2.3 2.3 2.3h1.2c.4 1.4 1.7 2.4 3.2 2.4h2.6c1.5 0 2.8-1 3.2-2.4h1.2c1.3 0 2.3-1 2.3-2.3v-1.3c0-.6.3-1.2.7-1.6 2-1.8 3.3-4.3 3.3-7.4C28 6.7 22.6 2 16 2z"/>
  <!-- eye sockets -->
  <ellipse cx="11.2" cy="14" rx="3.1" ry="3.4" fill="#0f172a"/>
  <ellipse cx="20.8" cy="14" rx="3.1" ry="3.4" fill="#0f172a"/>
  <!-- nasal cavity -->
  <path fill="#0f172a" d="M16 16.2c-1.2 0-2.1 1.5-2.1 2.7 0 .3.9.7 2.1.7s2.1-.4 2.1-.7c0-1.2-.9-2.7-2.1-2.7z"/>
  <!-- teeth -->
  <path fill="#0f172a" d="M10.5 23.2h2.1v2.2h-2.1zm3 0h2.1v2.4h-2.1zm3 0h2.1v2.4h-2.1zm3 0h2.1v2.2h-2.1z"/>
  <!-- cheek accent -->
  <circle cx="11.2" cy="14" r="1.1" fill="#c026d3" opacity=".85"/>
  <circle cx="20.8" cy="14" r="1.1" fill="#c026d3" opacity=".85"/>
</svg>
